<svg xmlns="http://www.w3.org/2000/svg" width="69" height="52" viewBox="0 0 69 52">
  <g id="Group_2" data-name="Group 2" transform="translate(-1964 1144)">
    <g id="Group_3" data-name="Group 3">
      <g id="Path_1" data-name="Path 1" transform="translate(1964 -1144)" fill="#949393">
        <path d="M 61.5 14.5 L 7.5 14.5 C 3.64018988609314 14.5 0.5 11.35980987548828 0.5 7.5 C 0.5 3.64018988609314 3.64018988609314 0.5 7.5 0.5 L 61.5 0.5 C 65.35980987548828 0.5 68.5 3.64018988609314 68.5 7.5 C 68.5 11.35980987548828 65.35980987548828 14.5 61.5 14.5 Z" stroke="none"/>
        <path d="M 7.5 1 C 3.9158935546875 1 1 3.915889739990234 1 7.5 C 1 11.08411026000977 3.9158935546875 14 7.5 14 L 61.5 14 C 65.0841064453125 14 68 11.08411026000977 68 7.5 C 68 3.915889739990234 65.0841064453125 1 61.5 1 L 7.5 1 M 7.5 0 L 61.5 0 C 65.64212799072266 0 69 3.35785961151123 69 7.5 C 69 11.64213943481445 65.64212799072266 15 61.5 15 L 7.5 15 C 3.357856750488281 15 0 11.64213943481445 0 7.5 C 0 3.35785961151123 3.357856750488281 0 7.5 0 Z" stroke="none" fill="#707070"/>
      </g>
      <g id="Rectangle_6" data-name="Rectangle 6" transform="translate(1964 -1126)" fill="#949393" stroke="#707070" stroke-width="1">
        <rect width="69" height="16" rx="8" stroke="none"/>
        <rect x="0.5" y="0.5" width="68" height="15" rx="7.5" fill="none"/>
      </g>
      <g id="Rectangle_7" data-name="Rectangle 7" transform="translate(1964 -1108)" fill="#949393" stroke="#707070" stroke-width="1">
        <rect width="69" height="16" rx="8" stroke="none"/>
        <rect x="0.5" y="0.5" width="68" height="15" rx="7.5" fill="none"/>
      </g>
    </g>
  </g>
</svg>
